<?xml version="1.0" standalone="no"?>
<!DOCTYPE svg PUBLIC "-//W3C//DTD SVG 20010904//EN"
 "http://www.w3.org/TR/2001/REC-SVG-20010904/DTD/svg10.dtd">
<svg version="1.0" xmlns="http://www.w3.org/2000/svg"
 width="180.000000pt" height="180.000000pt" viewBox="0 0 180.000000 180.000000"
 preserveAspectRatio="xMidYMid meet">
<metadata>
Created by potrace 1.14, written by Peter Selinger 2001-2017
</metadata>
<g transform="translate(0.000000,180.000000) scale(0.100000,-0.100000)"
fill="#000000" stroke="none">
<path d="M676 1353 c-6 -7 -28 -13 -53 -15 -7 -1 -10 -5 -7 -10 3 -4 0 -8 -7
-8 -15 0 -89 -74 -108 -109 -42 -77 -61 -117 -61 -128 0 -7 -4 -13 -8 -13 -4
0 -8 -10 -9 -22 -1 -11 -6 -24 -10 -27 -4 -3 -10 -13 -11 -21 -2 -8 -6 -24 -9
-35 -3 -11 -6 -30 -7 -42 0 -13 -5 -23 -11 -23 -5 0 -10 -10 -11 -22 0 -13 -4
-36 -8 -53 -4 -16 -8 -39 -9 -50 -2 -20 4 -20 558 -20 553 0 559 0 559 20 -1
21 -12 70 -21 95 -3 8 -8 23 -9 32 -2 9 -10 36 -18 59 -8 24 -13 46 -10 51 3
4 1 8 -4 8 -9 0 -37 78 -34 93 1 4 -2 7 -8 7 -5 0 -10 6 -10 14 0 7 -11 30
-25 50 -13 20 -22 36 -19 36 4 0 -18 26 -52 61 -31 31 -76 59 -98 61 -14 1
-26 6 -26 10 0 3 -13 6 -30 6 -16 -1 -30 -5 -30 -10 0 -5 -4 -7 -8 -4 -15 9
-89 -34 -100 -59 -12 -25 -38 -43 -59 -39 -7 1 -18 2 -23 3 -6 0 -15 11 -21
24 -12 26 -74 71 -101 73 -10 1 -19 2 -20 4 -9 6 -56 9 -62 3z"/>
<path d="M67 609 c-28 -22 -17 -57 33 -111 23 -23 42 -42 43 -40 2 4 35 -6 57
-17 13 -6 1405 -8 1405 -2 0 2 7 4 15 6 20 4 108 55 96 55 -5 0 0 10 12 23 12
13 19 27 15 31 -4 4 -1 11 7 16 13 8 12 13 -6 30 -21 22 -21 22 -840 23 -732
2 -820 0 -837 -14z"/>
</g>
</svg>
